<?xml version="1.0" encoding="UTF-8"?>
<svg width="700pt" height="700pt" version="1.1" viewBox="0 0 700 700" xmlns="http://www.w3.org/2000/svg" xmlns:xlink="http://www.w3.org/1999/xlink">
 <defs>
  <symbol id="f" overflow="visible">
   <path d="m28.859-1.7188c-1.4922 0.77344-3.043 1.3516-4.6562 1.7344-1.6055 0.39453-3.2891 0.59375-5.0469 0.59375-5.2305 0-9.375-1.457-12.438-4.375-3.0547-2.9258-4.5781-6.8945-4.5781-11.906 0-5.0195 1.5234-8.9883 4.5781-11.906 3.0625-2.9258 7.207-4.3906 12.438-4.3906 1.7578 0 3.4414 0.19922 5.0469 0.59375 1.6133 0.38672 3.1641 0.96484 4.6562 1.7344v6.5c-1.5-1.0195-2.9805-1.7695-4.4375-2.25-1.4609-0.47656-2.9961-0.71875-4.6094-0.71875-2.8867 0-5.1562 0.92969-6.8125 2.7812-1.6562 1.8555-2.4844 4.4062-2.4844 7.6562 0 3.2422 0.82812 5.7891 2.4844 7.6406 1.6562 1.8438 3.9258 2.7656 6.8125 2.7656 1.6133 0 3.1484-0.23438 4.6094-0.70312 1.457-0.47656 2.9375-1.2266 4.4375-2.25z"/>
  </symbol>
  <symbol id="d" overflow="visible">
   <path d="m21.125-17.141c-0.66797-0.3125-1.3281-0.53906-1.9844-0.6875-0.64844-0.14453-1.2969-0.21875-1.9531-0.21875-1.9375 0-3.4336 0.62109-4.4844 1.8594-1.043 1.2422-1.5625 3.0156-1.5625 5.3281v10.859h-7.5156v-23.562h7.5156v3.875c0.96875-1.5391 2.0781-2.6641 3.3281-3.375 1.2578-0.70703 2.7695-1.0625 4.5312-1.0625 0.25 0 0.51953 0.011719 0.8125 0.03125 0.28906 0.023438 0.71875 0.070312 1.2812 0.14062z"/>
  </symbol>
  <symbol id="a" overflow="visible">
   <path d="m27.141-11.844v2.1406h-17.609c0.17578 1.7734 0.8125 3.1016 1.9062 3.9844 1.0938 0.88672 2.625 1.3281 4.5938 1.3281 1.582 0 3.2031-0.23438 4.8594-0.70312 1.6641-0.47656 3.375-1.1914 5.125-2.1406v5.7969c-1.7812 0.67969-3.5625 1.1875-5.3438 1.5312s-3.5625 0.51562-5.3438 0.51562c-4.2617 0-7.5742-1.082-9.9375-3.25-2.3672-2.1641-3.5469-5.207-3.5469-9.125 0-3.832 1.1602-6.8477 3.4844-9.0469 2.3203-2.207 5.5156-3.3125 9.5781-3.3125 3.707 0 6.6719 1.1172 8.8906 3.3438 2.2266 2.2305 3.3438 5.2109 3.3438 8.9375zm-7.75-2.5c0-1.4258-0.41797-2.5781-1.25-3.4531-0.83594-0.88281-1.9219-1.3281-3.2656-1.3281-1.4609 0-2.6484 0.41406-3.5625 1.2344-0.90625 0.82422-1.4766 2.0078-1.7031 3.5469z"/>
  </symbol>
  <symbol id="c" overflow="visible">
   <path d="m14.172-10.594c-1.5625 0-2.7461 0.26562-3.5469 0.79688-0.79297 0.53125-1.1875 1.3125-1.1875 2.3438 0 0.96094 0.31641 1.7109 0.95312 2.25 0.64453 0.54297 1.5352 0.8125 2.6719 0.8125 1.4141 0 2.6094-0.50781 3.5781-1.5312 0.96875-1.0195 1.4531-2.2891 1.4531-3.8125v-0.85938zm11.516-2.8438v13.438h-7.5938v-3.4844c-1.0117 1.4297-2.1523 2.4688-3.4219 3.125-1.2617 0.64453-2.793 0.96875-4.5938 0.96875-2.4375 0-4.4219-0.70703-5.9531-2.125-1.5234-1.4258-2.2812-3.2734-2.2812-5.5469 0-2.7695 0.94531-4.7969 2.8438-6.0781 1.9062-1.2891 4.8945-1.9375 8.9688-1.9375h4.4375v-0.59375c0-1.1875-0.47656-2.0547-1.4219-2.6094-0.9375-0.5625-2.4023-0.84375-4.3906-0.84375-1.6172 0-3.1172 0.16406-4.5 0.48438-1.3867 0.32422-2.6797 0.80859-3.875 1.4531v-5.7344c1.6133-0.39453 3.2344-0.69141 4.8594-0.89062 1.6328-0.20703 3.2656-0.3125 4.8906-0.3125 4.25 0 7.3164 0.83984 9.2031 2.5156 1.8828 1.6797 2.8281 4.4023 2.8281 8.1719z"/>
  </symbol>
  <symbol id="b" overflow="visible">
   <path d="m11.844-30.25v6.6875h7.7656v5.3906h-7.7656v9.9844c0 1.0938 0.21094 1.8359 0.64062 2.2188 0.4375 0.38672 1.3008 0.57812 2.5938 0.57812h3.875v5.3906h-6.4531c-2.9805 0-5.0898-0.61719-6.3281-1.8594-1.2422-1.2383-1.8594-3.3477-1.8594-6.3281v-9.9844h-3.75v-5.3906h3.75v-6.6875z"/>
  </symbol>
  <symbol id="j" overflow="visible">
   <path d="m19.641-20.109v-12.625h7.5781v32.734h-7.5781v-3.4062c-1.0312 1.3867-2.1719 2.4023-3.4219 3.0469s-2.6953 0.96875-4.3281 0.96875c-2.9062 0-5.293-1.1484-7.1562-3.4531-1.8672-2.3125-2.7969-5.2852-2.7969-8.9219 0-3.625 0.92969-6.5859 2.7969-8.8906 1.8633-2.3125 4.25-3.4688 7.1562-3.4688 1.625 0 3.0625 0.32812 4.3125 0.98438 1.2578 0.64844 2.4062 1.6562 3.4375 3.0312zm-4.9531 15.25c1.6016 0 2.8281-0.58594 3.6719-1.7656 0.85156-1.1758 1.2812-2.8906 1.2812-5.1406 0-2.2383-0.42969-3.9453-1.2812-5.125-0.84375-1.1758-2.0703-1.7656-3.6719-1.7656-1.6055 0-2.8359 0.58984-3.6875 1.7656-0.84375 1.1797-1.2656 2.8867-1.2656 5.125 0 2.25 0.42188 3.9648 1.2656 5.1406 0.85156 1.1797 2.082 1.7656 3.6875 1.7656z"/>
  </symbol>
  <symbol id="i" overflow="visible">
   <path d="m16.156-4.8594c1.6133 0 2.8438-0.58594 3.6875-1.7656 0.85156-1.1758 1.2812-2.8906 1.2812-5.1406 0-2.2383-0.42969-3.9453-1.2812-5.125-0.84375-1.1758-2.0742-1.7656-3.6875-1.7656-1.6172 0-2.8555 0.59375-3.7188 1.7812-0.86719 1.1797-1.2969 2.8828-1.2969 5.1094 0 2.2422 0.42969 3.9531 1.2969 5.1406 0.86328 1.1797 2.1016 1.7656 3.7188 1.7656zm-5.0156-15.25c1.0391-1.375 2.1914-2.3828 3.4531-3.0312 1.2578-0.65625 2.7109-0.98438 4.3594-0.98438 2.9062 0 5.2891 1.1562 7.1562 3.4688 1.8633 2.3047 2.7969 5.2656 2.7969 8.8906 0 3.6367-0.93359 6.6094-2.7969 8.9219-1.8672 2.3047-4.25 3.4531-7.1562 3.4531-1.6484 0-3.1016-0.32422-4.3594-0.96875-1.2617-0.65625-2.4141-1.6719-3.4531-3.0469v3.4062h-7.5156v-32.734h7.5156z"/>
  </symbol>
  <symbol id="h" overflow="visible">
   <path d="m0.53125-23.562h7.5312l6.3281 15.984 5.375-15.984h7.5312l-9.9062 25.797c-0.99219 2.6133-2.1523 4.4414-3.4844 5.4844-1.3242 1.0508-3.0703 1.5781-5.2344 1.5781h-4.3594v-4.9375h2.3594c1.2695 0 2.1953-0.20312 2.7812-0.60938 0.58203-0.40625 1.0352-1.1367 1.3594-2.1875l0.20312-0.65625z"/>
  </symbol>
  <symbol id="g" overflow="visible">
   <path d="m3.625-23.562h7.5156v23.562h-7.5156zm0-9.1719h7.5156v6.1406h-7.5156z"/>
  </symbol>
  <symbol id="o" overflow="visible">
   <path d="m0.65625-23.562h7.5312l5.8594 16.281 5.8438-16.281h7.5625l-9.2812 23.562h-8.2656z"/>
  </symbol>
  <symbol id="n" overflow="visible">
   <path d="m25.812-30.422v6.6562c-1.7305-0.76953-3.418-1.3516-5.0625-1.75-1.6367-0.39453-3.1836-0.59375-4.6406-0.59375-1.9375 0-3.3711 0.27344-4.2969 0.8125-0.91797 0.53125-1.375 1.3555-1.375 2.4688 0 0.84375 0.3125 1.5 0.9375 1.9688s1.7539 0.875 3.3906 1.2188l3.4531 0.6875c3.4883 0.69922 5.9688 1.7656 7.4375 3.2031 1.4766 1.4297 2.2188 3.4609 2.2188 6.0938 0 3.4688-1.0312 6.0469-3.0938 7.7344-2.0547 1.6875-5.1875 2.5312-9.4062 2.5312-1.9922 0-3.9922-0.19531-6-0.57812-2-0.375-4.0078-0.92969-6.0156-1.6719v-6.8438c2.0078 1.0742 3.9453 1.8828 5.8125 2.4219 1.875 0.53125 3.6797 0.79688 5.4219 0.79688 1.7695 0 3.125-0.28906 4.0625-0.875 0.9375-0.59375 1.4062-1.4375 1.4062-2.5312 0-0.97656-0.32031-1.7344-0.95312-2.2656-0.63672-0.53125-1.9062-1.0078-3.8125-1.4375l-3.1406-0.6875c-3.1367-0.67578-5.4336-1.75-6.8906-3.2188-1.4492-1.4688-2.1719-3.4531-2.1719-5.9531 0-3.125 1.0078-5.5234 3.0312-7.2031 2.0195-1.6875 4.9219-2.5312 8.7031-2.5312 1.7266 0 3.5039 0.13281 5.3281 0.39062 1.8203 0.26172 3.707 0.64844 5.6562 1.1562z"/>
  </symbol>
  <symbol id="e" overflow="visible">
   <path d="m3.625-32.734h7.5156v32.734h-7.5156z"/>
  </symbol>
  <symbol id="m" overflow="visible">
   <path d="m19.125-32.734v4.9531h-4.1719c-1.0625 0-1.8086 0.19531-2.2344 0.57812-0.41797 0.38672-0.625 1.0547-0.625 2v1.6406h6.4375v5.3906h-6.4375v18.172h-7.5312v-18.172h-3.7344v-5.3906h3.7344v-1.6406c0-2.5625 0.71094-4.457 2.1406-5.6875 1.4375-1.2266 3.6562-1.8438 6.6562-1.8438z"/>
  </symbol>
  <symbol id="l" overflow="visible">
   <path d="m27.297-14.344v14.344h-7.5625v-10.938c0-2.0625-0.046875-3.4766-0.14062-4.25-0.09375-0.76953-0.25-1.3359-0.46875-1.7031-0.30469-0.48828-0.71094-0.86719-1.2188-1.1406-0.5-0.28125-1.0703-0.42188-1.7031-0.42188-1.5742 0-2.8125 0.60938-3.7188 1.8281-0.89844 1.2109-1.3438 2.8867-1.3438 5.0312v11.594h-7.5156v-32.734h7.5156v12.625c1.1445-1.375 2.3516-2.3828 3.625-3.0312 1.2812-0.65625 2.6914-0.98438 4.2344-0.98438 2.7188 0 4.7812 0.83594 6.1875 2.5 1.4062 1.668 2.1094 4.0938 2.1094 7.2812z"/>
  </symbol>
  <symbol id="k" overflow="visible">
   <path d="m3.625-23.562h7.5156v23.141c0 3.1562-0.75781 5.5625-2.2656 7.2188-1.5117 1.6641-3.7031 2.5-6.5781 2.5h-3.7344v-4.9375h1.3125c1.4258 0 2.4062-0.32422 2.9375-0.96875 0.53906-0.64844 0.8125-1.918 0.8125-3.8125zm0-9.1719h7.5156v6.1406h-7.5156z"/>
  </symbol>
 </defs>
 <g>
  <path d="m308.64 274.83c-0.86328-23.262-3.4453-48.246-3.4453-48.246 0-6.8906-1.7227-13.785-6.0312-20.676-4.3086-6.8906-10.34-12.062-18.094-15.508l-29.289-9.4805-24.125 44.801h-5.168l-24.121-44.801-28.43 10.34c-7.7539 2.5859-14.645 8.6172-18.094 15.508-4.3086 6.8906-6.0312 13.785-6.0312 19.816 0 0-2.5859 24.984-3.4453 49.109v6.8906h168zm-154.21-6.8945c0.86328-21.539 3.4453-40.492 3.4453-41.355 0-5.168 2.5859-10.34 4.3086-13.785 2.5859-4.3086 6.8906-7.7539 11.199-9.4766l18.094-6.8906 22.398 42.215h20.676l22.398-42.215 18.094 6.8906c5.168 1.7227 9.4766 5.168 12.062 9.4766 1.7227 3.4453 4.3086 8.6172 4.3086 14.645 0 0 2.5859 19.816 3.4453 41.355l-140.43 0.003906z"/>
  <path d="m225.08 179.2c22.398 0 40.492-18.094 40.492-40.492 0-22.398-18.094-40.492-40.492-40.492s-40.492 18.094-40.492 40.492c0 22.402 18.09 40.492 40.492 40.492zm0-67.199c14.645 0 27.57 12.062 27.57 27.57 0 15.508-12.062 27.57-27.57 27.57s-27.57-12.062-27.57-27.57c0-15.508 12.062-27.57 27.57-27.57z"/>
  <path d="m574-1.7227h-448c-13.785 0-24.125 10.34-24.125 23.262v516.92c0 12.922 10.34 24.125 23.262 24.125h448.86c12.922 0 24.125-10.34 24.125-24.125v-516.92c0-12.922-10.34-23.262-24.125-23.262zm-448 12.922h448.86c6.0312 0 11.199 5.168 11.199 11.199v35.324h-471.26v-36.184c0-6.0312 5.168-10.34 11.199-10.34zm448 538.46h-448c-6.0312 0-11.199-5.168-11.199-11.199v-468.68h470.4v468.68c0 6.0312-5.168 11.199-11.199 11.199z"/>
  <path d="m169.94 26.707h12.922v12.922h-12.922z"/>
  <path d="m139.79 26.707h12.922v12.922h-12.922z"/>
  <path d="m200.09 26.707h12.922v12.922h-12.922z"/>
  <path d="m350 138.71h193.85v12.922h-193.85z"/>
  <path d="m350 191.26h163.69v12.922h-163.69z"/>
  <path d="m350 243.82h105.11v12.922h-105.11z"/>
  <path d="m141.51 374.77h409.23v-56h-409.23zm12.922-43.078h383.38l0.003906 30.156h-383.39z"/>
  <path d="m141.51 520.37h189.54v-118.89h-189.54zm12.922-105.97h163.69v93.047h-163.69z"/>
  <path d="m361.2 520.37h189.54v-118.89h-189.54zm12.926-105.97h163.69v93.047h-163.69z"/>
  
 </g>
</svg>
