<?xml version="1.0" encoding="UTF-8"?>
<svg width="700pt" height="700pt" version="1.1" viewBox="0 0 700 700" xmlns="http://www.w3.org/2000/svg" xmlns:xlink="http://www.w3.org/1999/xlink">
 <defs>
  <symbol id="w" overflow="visible">
   <path d="m14.656-0.875c-0.76172 0.39844-1.5547 0.69531-2.375 0.89062-0.8125 0.19531-1.6641 0.29688-2.5469 0.29688-2.6562 0-4.7617-0.73828-6.3125-2.2188-1.5547-1.4883-2.3281-3.5039-2.3281-6.0469 0-2.5508 0.77344-4.5664 2.3281-6.0469 1.5508-1.4883 3.6562-2.2344 6.3125-2.2344 0.88281 0 1.7344 0.10156 2.5469 0.29688 0.82031 0.19922 1.6133 0.49609 2.375 0.89062v3.2969c-0.76172-0.51953-1.5117-0.89844-2.25-1.1406-0.74219-0.23828-1.5234-0.35938-2.3438-0.35938-1.4688 0-2.625 0.46875-3.4688 1.4062-0.83594 0.9375-1.25 2.2344-1.25 3.8906 0 1.6484 0.41406 2.9375 1.25 3.875 0.84375 0.9375 2 1.4062 3.4688 1.4062 0.82031 0 1.6016-0.11719 2.3438-0.35938 0.73828-0.23828 1.4883-0.61719 2.25-1.1406z"/>
  </symbol>
  <symbol id="c" overflow="visible">
   <path d="m10.719-8.7031c-0.33594-0.15625-0.66797-0.26953-1-0.34375-0.32422-0.082031-0.65625-0.125-1-0.125-0.98047 0-1.7344 0.32031-2.2656 0.95312-0.53125 0.625-0.79688 1.5273-0.79688 2.7031v5.5156h-3.8125v-11.969h3.8125v1.9688c0.48828-0.78125 1.0508-1.3477 1.6875-1.7031 0.64453-0.36328 1.4102-0.54688 2.2969-0.54688 0.13281 0 0.27344 0.007812 0.42188 0.015625 0.14453 0.011719 0.36328 0.03125 0.65625 0.0625z"/>
  </symbol>
  <symbol id="a" overflow="visible">
   <path d="m13.781-6.0156v1.0938h-8.9375c0.09375 0.89844 0.41406 1.5703 0.96875 2.0156 0.55078 0.44922 1.3281 0.67188 2.3281 0.67188 0.80078 0 1.625-0.11719 2.4688-0.35938 0.84375-0.23828 1.7109-0.59766 2.6094-1.0781v2.9531c-0.90625 0.33594-1.8125 0.58984-2.7188 0.76562s-1.8125 0.26562-2.7188 0.26562c-2.1562 0-3.8398-0.54688-5.0469-1.6406-1.1992-1.1016-1.7969-2.6484-1.7969-4.6406 0-1.9453 0.58594-3.4766 1.7656-4.5938 1.1758-1.125 2.8008-1.6875 4.875-1.6875 1.875 0 3.375 0.57031 4.5 1.7031 1.1328 1.125 1.7031 2.6367 1.7031 4.5312zm-3.9375-1.2656c0-0.72656-0.21484-1.3125-0.64062-1.75-0.41797-0.44531-0.96875-0.67188-1.6562-0.67188-0.74219 0-1.3438 0.21094-1.8125 0.625-0.46094 0.41797-0.74609 1.0156-0.85938 1.7969z"/>
  </symbol>
  <symbol id="e" overflow="visible">
   <path d="m7.2031-5.3906c-0.80469 0-1.4062 0.13672-1.8125 0.40625-0.39844 0.27344-0.59375 0.67188-0.59375 1.2031 0 0.48047 0.16016 0.85938 0.48438 1.1406 0.32031 0.27344 0.77344 0.40625 1.3594 0.40625 0.71875 0 1.3203-0.25391 1.8125-0.76562 0.48828-0.51953 0.73438-1.1719 0.73438-1.9531v-0.4375zm5.8438-1.4375v6.8281h-3.8594v-1.7656c-0.51172 0.71875-1.0898 1.2461-1.7344 1.5781-0.63672 0.33203-1.418 0.5-2.3438 0.5-1.2422 0-2.2461-0.35938-3.0156-1.0781-0.77344-0.72656-1.1562-1.6719-1.1562-2.8281 0-1.3945 0.47656-2.4219 1.4375-3.0781 0.96875-0.65625 2.4883-0.98438 4.5625-0.98438h2.25v-0.29688c0-0.60156-0.24219-1.0469-0.71875-1.3281-0.48047-0.28125-1.2266-0.42188-2.2344-0.42188-0.8125 0-1.5742 0.085937-2.2812 0.25-0.71094 0.15625-1.3672 0.40234-1.9688 0.73438v-2.9219c0.82031-0.19531 1.6445-0.34766 2.4688-0.45312 0.82031-0.10156 1.6484-0.15625 2.4844-0.15625 2.1562 0 3.7109 0.42969 4.6719 1.2812 0.95703 0.84375 1.4375 2.2266 1.4375 4.1406z"/>
  </symbol>
  <symbol id="b" overflow="visible">
   <path d="m6.0156-15.359v3.3906h3.9375v2.7344h-3.9375v5.0781c0 0.55469 0.10938 0.92969 0.32812 1.125 0.21875 0.19922 0.65625 0.29688 1.3125 0.29688h1.9688v2.7344h-3.2812c-1.5117 0-2.5859-0.3125-3.2188-0.9375-0.625-0.63281-0.9375-1.707-0.9375-3.2188v-5.0781h-1.9062v-2.7344h1.9062v-3.3906z"/>
  </symbol>
  <symbol id="j" overflow="visible">
   <path d="m9.9688-10.219v-6.4062h3.8594v16.625h-3.8594v-1.7344c-0.52344 0.71094-1.1016 1.2305-1.7344 1.5625-0.63672 0.32031-1.3711 0.48438-2.2031 0.48438-1.4688 0-2.6797-0.58203-3.625-1.75-0.94922-1.1758-1.4219-2.6875-1.4219-4.5312s0.47266-3.3477 1.4219-4.5156c0.94531-1.1758 2.1562-1.7656 3.625-1.7656 0.83203 0 1.5664 0.16797 2.2031 0.5 0.63281 0.32422 1.2109 0.83594 1.7344 1.5312zm-2.5156 7.75c0.82031 0 1.4453-0.29688 1.875-0.89062 0.42578-0.60156 0.64062-1.4727 0.64062-2.6094 0-1.1445-0.21484-2.0156-0.64062-2.6094-0.42969-0.59375-1.0547-0.89062-1.875-0.89062-0.8125 0-1.4336 0.29688-1.8594 0.89062-0.42969 0.59375-0.64062 1.4648-0.64062 2.6094 0 1.1367 0.21094 2.0078 0.64062 2.6094 0.42578 0.59375 1.0469 0.89062 1.8594 0.89062z"/>
  </symbol>
  <symbol id="i" overflow="visible">
   <path d="m8.2031-2.4688c0.82031 0 1.4453-0.29688 1.875-0.89062 0.42578-0.60156 0.64062-1.4727 0.64062-2.6094 0-1.1445-0.21484-2.0156-0.64062-2.6094-0.42969-0.59375-1.0547-0.89062-1.875-0.89062-0.82422 0-1.4531 0.30469-1.8906 0.90625-0.4375 0.59375-0.65625 1.4609-0.65625 2.5938 0 1.1367 0.21875 2.0078 0.65625 2.6094 0.4375 0.59375 1.0664 0.89062 1.8906 0.89062zm-2.5469-7.75c0.53125-0.69531 1.1133-1.207 1.75-1.5312 0.64453-0.33203 1.3828-0.5 2.2188-0.5 1.4688 0 2.6758 0.58984 3.625 1.7656 0.94531 1.168 1.4219 2.6719 1.4219 4.5156s-0.47656 3.3555-1.4219 4.5312c-0.94922 1.168-2.1562 1.75-3.625 1.75-0.83594 0-1.5742-0.16797-2.2188-0.5-0.63672-0.33203-1.2188-0.84766-1.75-1.5469v1.7344h-3.8125v-16.625h3.8125z"/>
  </symbol>
  <symbol id="h" overflow="visible">
   <path d="m0.26562-11.969h3.8281l3.2188 8.125 2.7344-8.125h3.8125l-5.0312 13.094c-0.5 1.332-1.0898 2.2656-1.7656 2.7969-0.66797 0.53125-1.5547 0.79688-2.6562 0.79688h-2.2188v-2.5h1.2031c0.64453 0 1.1133-0.10547 1.4062-0.3125 0.30078-0.21094 0.53125-0.57812 0.6875-1.1094l0.10938-0.34375z"/>
  </symbol>
  <symbol id="g" overflow="visible">
   <path d="m6.125-12.844v9.7344h1.4688c1.6758 0 2.957-0.41406 3.8438-1.25 0.89453-0.83203 1.3438-2.0391 1.3438-3.625 0-1.582-0.44531-2.7852-1.3281-3.6094-0.88672-0.83203-2.1719-1.25-3.8594-1.25zm-4.1094-3.1094h4.3281c2.4141 0 4.2188 0.17969 5.4062 0.53125 1.1875 0.34375 2.2031 0.92969 3.0469 1.75 0.75 0.71875 1.3047 1.5547 1.6719 2.5 0.36328 0.9375 0.54688 2 0.54688 3.1875 0 1.1992-0.18359 2.2734-0.54688 3.2188-0.36719 0.9375-0.92188 1.7656-1.6719 2.4844-0.85547 0.83594-1.8828 1.4219-3.0781 1.7656-1.1875 0.34375-2.9805 0.51562-5.375 0.51562h-4.3281z"/>
  </symbol>
  <symbol id="f" overflow="visible">
   <path d="m13.859-7.2812v7.2812h-3.8438v-5.5781c0-1.0312-0.027344-1.7383-0.078125-2.125-0.042969-0.39453-0.12109-0.6875-0.23438-0.875-0.14844-0.25-0.35156-0.44141-0.60938-0.57812-0.25-0.14453-0.54297-0.21875-0.875-0.21875-0.79297 0-1.418 0.3125-1.875 0.9375-0.46094 0.61719-0.6875 1.4648-0.6875 2.5469v5.8906h-3.8125v-11.969h3.8125v1.75c0.58203-0.69531 1.1953-1.207 1.8438-1.5312 0.64453-0.33203 1.3594-0.5 2.1406-0.5 1.3828 0 2.4297 0.42969 3.1406 1.2812 0.71875 0.84375 1.0781 2.0742 1.0781 3.6875z"/>
  </symbol>
  <symbol id="v" overflow="visible">
   <path d="m1.8438-11.969h3.8125v11.969h-3.8125zm0-4.6562h3.8125v3.125h-3.8125z"/>
  </symbol>
  <symbol id="u" overflow="visible">
   <path d="m1.8438-16.625h3.8125v16.625h-3.8125z"/>
  </symbol>
  <symbol id="t" overflow="visible">
   <path d="m0.10938-15.953h14.688v3.1094h-5.2812v12.844h-4.1094v-12.844h-5.2969z"/>
  </symbol>
  <symbol id="s" overflow="visible">
   <path d="m2.2344-4.1406h3.8438v4.1406h-3.8438z"/>
  </symbol>
  <symbol id="r" overflow="visible">
   <path d="m9.7031-16.625v2.5156h-2.1094c-0.54297 0-0.92188 0.10156-1.1406 0.29688-0.21094 0.19922-0.3125 0.53906-0.3125 1.0156v0.82812h3.2656v2.7344h-3.2656v9.2344h-3.8281v-9.2344h-1.8906v-2.7344h1.8906v-0.82812c0-1.3008 0.36328-2.2656 1.0938-2.8906 0.72656-0.625 1.8516-0.9375 3.375-0.9375z"/>
  </symbol>
  <symbol id="d" overflow="visible">
   <path d="m7.5312-9.5156c-0.84375 0-1.4922 0.30859-1.9375 0.92188-0.44922 0.60547-0.67188 1.4805-0.67188 2.625 0 1.1484 0.22266 2.0273 0.67188 2.6406 0.44531 0.60547 1.0938 0.90625 1.9375 0.90625 0.83203 0 1.4688-0.30078 1.9062-0.90625 0.44531-0.61328 0.67188-1.4922 0.67188-2.6406 0-1.1445-0.22656-2.0195-0.67188-2.625-0.4375-0.61328-1.0742-0.92188-1.9062-0.92188zm0-2.7344c2.0508 0 3.6562 0.55859 4.8125 1.6719 1.1641 1.1055 1.75 2.6406 1.75 4.6094s-0.58594 3.5117-1.75 4.625c-1.1562 1.1055-2.7617 1.6562-4.8125 1.6562-2.0625 0-3.6797-0.55078-4.8438-1.6562-1.168-1.1133-1.75-2.6562-1.75-4.625s0.58203-3.5039 1.75-4.6094c1.1641-1.1133 2.7812-1.6719 4.8438-1.6719z"/>
  </symbol>
  <symbol id="q" overflow="visible">
   <path d="m12.922-9.9688c0.48828-0.75 1.0625-1.3164 1.7188-1.7031 0.66406-0.38281 1.3984-0.57812 2.2031-0.57812 1.375 0 2.4219 0.42969 3.1406 1.2812 0.71875 0.84375 1.0781 2.0742 1.0781 3.6875v7.2812h-3.8438v-6.2344c0.007812-0.09375 0.015625-0.1875 0.015625-0.28125v-0.4375c0-0.84375-0.125-1.457-0.375-1.8438-0.25-0.38281-0.65234-0.57812-1.2031-0.57812-0.73047 0-1.293 0.30469-1.6875 0.90625-0.38672 0.59375-0.58984 1.4609-0.60938 2.5938v5.875h-3.8438v-6.2344c0-1.3203-0.11719-2.1758-0.34375-2.5625-0.23047-0.38281-0.63672-0.57812-1.2188-0.57812-0.73047 0-1.2969 0.30469-1.7031 0.90625-0.39844 0.60547-0.59375 1.4648-0.59375 2.5781v5.8906h-3.8438v-11.969h3.8438v1.75c0.46875-0.66406 1.0039-1.1719 1.6094-1.5156 0.61328-0.34375 1.2891-0.51562 2.0312-0.51562 0.82031 0 1.5508 0.19922 2.1875 0.59375 0.63281 0.39844 1.1133 0.96094 1.4375 1.6875z"/>
  </symbol>
  <symbol id="p" overflow="visible">
   <path d="m13.859-7.2812v7.2812h-3.8438v-5.5469c0-1.0508-0.027344-1.7695-0.078125-2.1562-0.042969-0.39453-0.12109-0.6875-0.23438-0.875-0.14844-0.25-0.35156-0.44141-0.60938-0.57812-0.25-0.14453-0.54297-0.21875-0.875-0.21875-0.79297 0-1.418 0.3125-1.875 0.9375-0.46094 0.61719-0.6875 1.4648-0.6875 2.5469v5.8906h-3.8125v-16.625h3.8125v6.4062c0.58203-0.69531 1.1953-1.207 1.8438-1.5312 0.64453-0.33203 1.3594-0.5 2.1406-0.5 1.3828 0 2.4297 0.42969 3.1406 1.2812 0.71875 0.84375 1.0781 2.0742 1.0781 3.6875z"/>
  </symbol>
  <symbol id="o" overflow="visible">
   <path d="m2.0156-15.953h4.5781l5.8125 10.938v-10.938h3.8906v15.953h-4.5938l-5.7969-10.938v10.938h-3.8906z"/>
  </symbol>
  <symbol id="n" overflow="visible">
   <path d="m1.7031-4.6562v-7.3125h3.8438v1.2031c0 0.64844-0.007813 1.4609-0.015625 2.4375v1.9688c0 0.96094 0.023438 1.6523 0.078125 2.0781 0.050781 0.41797 0.13281 0.72656 0.25 0.92188 0.15625 0.25 0.35938 0.44531 0.60938 0.57812 0.25781 0.13672 0.55078 0.20312 0.875 0.20312 0.80078 0 1.4258-0.30469 1.875-0.92188 0.45703-0.61328 0.6875-1.4688 0.6875-2.5625v-5.9062h3.8281v11.969h-3.8281v-1.7344c-0.57422 0.69922-1.1836 1.2148-1.8281 1.5469-0.64844 0.33203-1.3555 0.5-2.125 0.5-1.3867 0-2.4453-0.42188-3.1719-1.2656-0.71875-0.85156-1.0781-2.0859-1.0781-3.7031z"/>
  </symbol>
  <symbol id="m" overflow="visible">
   <path d="m2.0156-15.953h6.8125c2.0312 0 3.5859 0.45312 4.6719 1.3594 1.0938 0.89844 1.6406 2.1797 1.6406 3.8438 0 1.6797-0.54688 2.9688-1.6406 3.875-1.0859 0.89844-2.6406 1.3438-4.6719 1.3438h-2.7031v5.5312h-4.1094zm4.1094 2.9844v4.4531h2.2656c0.80078 0 1.4141-0.19141 1.8438-0.57812 0.4375-0.38281 0.65625-0.9375 0.65625-1.6562 0-0.70703-0.21875-1.2539-0.65625-1.6406-0.42969-0.38281-1.043-0.57812-1.8438-0.57812z"/>
  </symbol>
  <symbol id="l" overflow="visible">
   <path d="m1.8438-11.969h3.8125v11.75c0 1.6016-0.38672 2.8281-1.1562 3.6719-0.76172 0.84375-1.8711 1.2656-3.3281 1.2656h-1.8906v-2.5h0.65625c0.72656 0 1.2266-0.16797 1.5-0.5 0.26953-0.32422 0.40625-0.96875 0.40625-1.9375zm0-4.6562h3.8125v3.125h-3.8125z"/>
  </symbol>
  <symbol id="k" overflow="visible">
   <path d="m11.5-11.594v3.125c-0.52344-0.35156-1.043-0.61328-1.5625-0.78125-0.52344-0.17578-1.0625-0.26562-1.625-0.26562-1.0742 0-1.9062 0.3125-2.5 0.9375s-0.89062 1.4961-0.89062 2.6094c0 1.1172 0.29688 1.9844 0.89062 2.6094s1.4258 0.9375 2.5 0.9375c0.59375 0 1.1562-0.085937 1.6875-0.26562 0.53906-0.17578 1.0391-0.44141 1.5-0.79688v3.125c-0.59375 0.23047-1.1992 0.39453-1.8125 0.5-0.61719 0.11328-1.2344 0.17188-1.8594 0.17188-2.1562 0-3.8438-0.55078-5.0625-1.6562-1.2188-1.1133-1.8281-2.6562-1.8281-4.625s0.60938-3.5039 1.8281-4.6094c1.2188-1.1133 2.9062-1.6719 5.0625-1.6719 0.625 0 1.2383 0.058594 1.8438 0.17188 0.61328 0.10547 1.2227 0.26562 1.8281 0.48438z"/>
  </symbol>
 </defs>
 <g>
  <path d="m176.01 376.16c-8.0508 0-14.57 6.5195-14.57 14.57s6.5195 14.57 14.57 14.57c8.0508 0 14.57-6.5195 14.57-14.57s-6.5195-14.57-14.57-14.57zm0 21.395c-3.7617 0-6.7812-3.0625-6.7812-6.7812s3.0625-6.7812 6.7812-6.7812 6.7812 3.0625 6.7812 6.7812-3.0625 6.7812-6.7812 6.7812z"/>
  <path d="m347.99 376.16c-8.0508 0-14.57 6.5195-14.57 14.57s6.5195 14.57 14.57 14.57 14.57-6.5195 14.57-14.57-6.5195-14.57-14.57-14.57zm0 21.395c-3.7617 0-6.7812-3.0625-6.7812-6.7812s3.0625-6.7812 6.7812-6.7812 6.7812 3.0625 6.7812 6.7812-3.0625 6.7812-6.7812 6.7812z"/>
  <path d="m324.14 328.48h21.961l9.4922 10.805c0.74219 0.83203 1.793 1.3125 2.9297 1.3125l16.23-0.17578c2.1445 0 3.8516-1.75 3.8516-3.8945v-0.78906-0.39453c-0.21875-2.1016-2.1016-20.738-6.168-28.918-1.707-3.6758-4.1992-7.2188-6.5195-9.2305l-0.13281-0.13281c-1.707-1.3555-6.8242-5.4688-14.523-5.4688h-27.125c-2.1445 0-3.8945 1.75-3.8945 3.8945v29.051c0 2.1445 1.75 3.8945 3.8945 3.8945zm3.8945-29.051h23.23c4.418 0 7.6133 2.1016 9.625 3.6758 1.4883 1.3125 3.3242 4.0234 4.5508 6.6484v0.13281c2.4922 4.8555 4.2422 16.145 5.0742 22.836l-10.238 0.085938-9.4922-10.762c-0.74219-0.83203-1.793-1.3125-2.9297-1.3125h-19.863v-21.305z"/>
  <path d="m576.32 357.04h-22.664v-126.61c0-4.4609-1.6641-8.707-4.7266-11.945l-68.117-72.801c-5.0312-5.9922-12.555-9.4492-20.695-9.4492-8.1367 0-15.664 3.457-20.695 9.4492l-68.117 72.801c-3.0195 3.2383-4.7266 7.4805-4.7266 11.945v32.242c0 3.2383 2.625 5.8203 5.8203 5.8203 3.1953 0 5.8203-2.625 5.8203-5.8203v-32.242c0-1.4883 0.57031-2.8867 1.5742-3.9805l68.25-72.93 0.26172-0.26172c2.8008-3.4141 7.0859-5.3359 11.812-5.3359 4.7266 0 9.0117 1.9688 11.812 5.3359 0.085937 0.085938 0.17578 0.17578 0.26172 0.26172l68.207 72.93c1.0078 1.0938 1.5742 2.4922 1.5742 3.9805v126.61h-79.449v-88.68c0-3.1953-2.625-5.8203-5.8203-5.8203h-46.637c-3.1953 0-5.8203 2.625-5.8203 5.8203v39.637c0 2.1445 1.75 3.8945 3.8945 3.8945s3.8945-1.75 3.8945-3.8945v-37.668h42.742v86.758h-38.938c-1.707 0-3.2812 0.74219-4.332 1.9258h-1.3984s-0.30469 0-0.4375 0.042969v-21.395c0-0.875-0.17578-1.707-0.57031-2.4492-0.4375-0.875-3.8516-7.9609-9.1445-12.336-2.1445-11.07-4.5938-19.426-7.2188-24.852l-0.085937-0.17578-0.17578-0.35156c-3.1953-6.8242-7.875-13.344-12.207-17.062l-0.17578-0.17578c-2.5391-2.0117-10.238-8.0938-21.395-9.625-1.793-0.26172-3.6758-0.39453-5.5547-0.39453h-32.855c-3.2383 0-5.8203 2.625-5.8203 5.8203s2.625 5.8203 5.8203 5.8203h32.855c1.3555 0 2.668 0.085938 3.9375 0.26172 7.1328 0.96094 12.336 4.5078 15.664 7.1328 3.0625 2.668 6.7383 7.9609 9.1875 13.168v0.13281l0.13281 0.13281s0.13281 0.26172 0.21875 0.39453c1.6172 3.3672 4.0703 10.238 6.6484 24.105 0.30469 1.6641 1.3125 3.0625 2.7578 3.9375 2.4062 1.4453 4.9883 5.3828 6.3008 7.832v30.055c0 0.52344 0 0.875 0.17578 1.3555 0.085937 0.39453 0.085937 0.91797 0 1.1797-1.707 1.5742-3.1484 1.8359-3.457 1.8828h-18.68c-5.8203-9.2305-16.23-15.398-28.043-15.398s-22.312 6.2578-28.133 15.574c-0.4375-0.13281-0.91797-0.17578-1.3984-0.17578l-114.28-0.003906c-1.4883-2.4062-3.2812-4.5938-5.293-6.5625h102.16c3.2383 0 5.8203-2.625 5.8203-5.8203v-100.23c0-5.5547-6.3008-12.555-13.43-12.555h-152.95c-6.9141 0-11.508 6.5195-11.508 12.555v100.23c0 3.2383 2.625 5.8203 5.8203 5.8203h18.289c-2.0117 1.9688-3.8047 4.1562-5.293 6.6055h-0.52344-23.582c-3.2383 0-5.8203 2.625-5.8203 5.8203s2.625 5.8203 5.8203 5.8203h19.73c-0.30469 1.793-0.48047 3.6758-0.48047 5.5547 0 18.199 14.832 33.031 33.074 33.031 18.242 0 33.074-14.832 33.074-33.031 0-1.8828-0.17578-3.7617-0.48047-5.5547h106.84c-0.30469 1.793-0.48047 3.6758-0.48047 5.5547 0 17.98 14.832 32.637 33.031 32.637s33.031-14.613 33.031-32.637c0-1.8828-0.17578-3.7617-0.48047-5.5547h14.352c0.96094 0 6.082-0.26172 11.242-5.0312 4.332-3.8945 3.9375-9.4492 3.543-11.68v-1.793s0.30469 0.042969 0.4375 0.042969h1.3984c1.0508 1.1797 2.625 1.9258 4.332 1.9258h160.48c3.2383 0 5.8203-2.625 5.8203-5.8203 0-3.1953-2.625-5.8203-5.8203-5.8203zm-435.71-96.117c0-0.30469 0.17578-0.69922 0.30469-0.91797h152.43c0.57031 0.13281 1.4883 0.875 1.8828 1.4453v93.887l-154.61-0.003906v-94.414zm35.395 151.2c-11.812 0-21.395-9.582-21.395-21.395s9.582-21.395 21.395-21.395 21.395 9.582 21.395 21.395-9.582 21.395-21.395 21.395zm171.98-0.39453c-11.77 0-21.395-9.4062-21.395-20.957 0-11.551 9.582-20.957 21.395-20.957s21.395 9.4062 21.395 20.957c0 11.551-9.582 20.957-21.395 20.957zm46.77-38.195h0.13281z"/>
  <path d="m324.05 346.76h10.719c2.1445 0 3.8945-1.75 3.8945-3.8945 0-2.1445-1.75-3.8945-3.8945-3.8945h-10.719c-2.1445 0-3.8945 1.75-3.8945 3.8945 0 2.1445 1.75 3.8945 3.8945 3.8945z"/>
  
 </g>
</svg>
